<?xml version="1.0" standalone="no"?>
<!DOCTYPE svg PUBLIC "-//W3C//DTD SVG 20010904//EN"
 "http://www.w3.org/TR/2001/REC-SVG-20010904/DTD/svg10.dtd">
<svg version="1.0" xmlns="http://www.w3.org/2000/svg"
 width="512.000000pt" height="512.000000pt" viewBox="0 0 512.000000 512.000000"
 preserveAspectRatio="xMidYMid meet">
<metadata>
Created by potrace 1.14, written by Peter Selinger 2001-2017
</metadata>
<g transform="translate(0.000000,512.000000) scale(0.100000,-0.100000)"
fill="#000000" stroke="none">
<path d="M0 2560 l0 -2560 2560 0 2560 0 0 2560 0 2560 -2560 0 -2560 0 0
-2560z m711 2330 c29 -16 51 -67 44 -101 -15 -65 -103 -92 -150 -44 -28 27
-34 90 -12 117 28 35 80 48 118 28z m278 -5 c40 -20 55 -66 37 -110 -38 -90
-166 -65 -166 33 0 74 63 112 129 77z m3105 -2002 c-4 -16 -25 -89 -46 -163
-22 -74 -45 -157 -53 -185 -29 -111 -116 -433 -130 -480 -8 -27 -26 -90 -40
-140 -55 -191 -51 -185 -111 -185 -34 0 -44 4 -44 17 0 9 20 87 45 174 25 87
54 194 65 236 10 43 28 110 39 148 11 39 43 151 71 250 28 99 57 200 65 225 7
25 18 64 25 88 l11 42 55 0 c54 0 54 0 48 -27z m-2824 -257 c0 -151 4 -277 8
-280 5 -3 133 121 286 275 l278 279 94 0 c52 0 94 -4 94 -9 0 -4 -30 -37 -67
-71 -135 -125 -393 -383 -393 -392 0 -5 39 -63 88 -127 48 -65 121 -165 162
-221 41 -57 110 -151 153 -208 42 -58 77 -109 77 -114 0 -4 -40 -8 -90 -8
l-90 0 -37 48 c-21 26 -65 87 -98 135 -77 112 -162 234 -221 320 -26 37 -52
67 -58 67 -6 0 -51 -39 -98 -87 l-88 -88 -2 -195 -3 -195 -70 0 -70 0 -3 560
c-1 308 0 566 3 573 3 8 28 12 75 12 l70 0 0 -274z m1346 -143 c152 -230 286
-428 298 -441 l21 -24 5 439 5 438 68 3 67 3 0 -576 0 -575 -74 0 -73 0 -151
228 c-84 125 -175 261 -203 302 -28 41 -92 137 -141 213 -53 81 -94 135 -99
130 -5 -5 -10 -202 -11 -438 l-3 -430 -65 0 -65 0 -3 573 -2 572 74 0 75 0
277 -417z m-1696 149 l0 -68 -142 -59 c-334 -138 -430 -181 -430 -190 0 -5 55
-33 123 -60 68 -28 189 -78 269 -112 80 -33 153 -63 163 -66 14 -5 17 -19 17
-76 0 -82 21 -83 -171 3 -132 59 -387 169 -506 218 l-73 30 0 68 0 67 148 60
c270 111 486 203 537 227 28 14 53 25 58 25 4 1 7 -30 7 -67z m3575 -54 c105
-44 226 -95 270 -113 44 -18 106 -44 138 -59 l58 -25 -3 -62 -3 -62 -130 -59
c-71 -33 -173 -77 -225 -98 -52 -21 -160 -68 -239 -104 -79 -36 -147 -66 -152
-66 -5 0 -9 30 -9 68 l0 67 290 120 c159 66 290 125 290 131 0 6 -15 17 -32
24 -18 7 -46 19 -63 26 -16 7 -97 40 -180 74 -82 33 -184 76 -225 94 l-75 33
-3 53 c-5 80 -1 83 55 59 26 -12 134 -57 238 -101z"/>
</g>
</svg>
